<svg fill="#006fb2" xmlns="http://www.w3.org/2000/svg" viewBox="0 0 124 66" class="Navbar-embedded"><path d="M75.81 45.29a5.38 5.38 0 00.44 1.41v4.07h-.07a4 4 0 00-.36.27.89.89 0 010 .13 1.62 1.62 0 010 .19v.14h-6.56v-.08a3.85 3.85 0 00-.27-.39l-2.15-.23a4.34 4.34 0 01-1.65 1.09h-.1c-1.64 0-2.56.08-3.5.08a10.93 10.93 0 01-2.52.81H59v-.05a1.57 1.57 0 01-.44-1.12c0-.32.07-.59.07-.73v-1.69l.07-.05a1.46 1.46 0 00.4-.32.83.83 0 00.13-.5 3.17 3.17 0 00-.23-.86v-.12l.1-.07a2 2 0 00.81-.76A1.35 1.35 0 0060 46a3.87 3.87 0 00-.11-.85v-.12l.1-.06a1.47 1.47 0 00.39-.31.8.8 0 00.11-.46 2.93 2.93 0 00-.14-.79v-.11c0-.24.32-.68.44-1.1a4.83 4.83 0 00.15-1.3 12.72 12.72 0 00-.16-1.82 2.6 2.6 0 00-.42-1 9.72 9.72 0 01-.47-3.08 23.57 23.57 0 01.43-4.25l2.59-6.89a2.92 2.92 0 01-.42-.49.72.72 0 010-.24v-.51l.05-.05a2.2 2.2 0 00.6-1.28v-.5-.22c.1-.51 1.17-1.81 1.3-3a4.91 4.91 0 000-.54v-.73a19.93 19.93 0 013-5.69V9h.07a.78.78 0 00.36-.43c0-.13 0 0-.23-.31h-2.3v-.08a1.87 1.87 0 00-.34-.47.92.92 0 00-.68-.23 11.18 11.18 0 00-1.47.28 1.41 1.41 0 00-.69.89 11.79 11.79 0 00-.78 2.83c-.41 2.59-.84 2.95-1.39 3h-.22a.58.58 0 00-.56.39l-.1.13-.11-.14c-.19-.17-.44-.41-.52-.45l-.11-.07v-.12a2.66 2.66 0 00.21-1c0-.46-.21-.7-.23-1.2A1.72 1.72 0 0159 11V3h14.89v.08c.26.43.28.41.29.4h.49V4c-.39.44-.53 2-1.79 3.23a6.24 6.24 0 01.06.81 2.9 2.9 0 01-.07.69 3.1 3.1 0 01-1.29 1.77 5.28 5.28 0 01.07.81 2.57 2.57 0 01-.08.7c-.3.75-.83.41-.86 1.27 0 0-.24 1.65-.46 2.7s-.76 1.64-.75 2.43a2.51 2.51 0 000 .41l-.13 4.24h-.07c-.63.38-.52 2.81-1.66 4v1.51c-.35.92-1 .87-1.29 2.05v4.98l-1.3 3.74c0 .14.05.67.05 1.25a7.3 7.3 0 01-.06 1 10.71 10.71 0 01-1.35 3.3l-.19.31a1 1 0 010 .11 5.21 5.21 0 01-.41 1.44 3.24 3.24 0 01-.39 1 .45.45 0 00.34.22.85.85 0 00.29-.38l.08-.14.14.07a1.68 1.68 0 00.75.17c.48 0 1-.18 1.63-.18.17 0 .2-.15.25-.49a1.84 1.84 0 01.42-1.1c.65-.69 2.09-.83 2.41-1.08 1.76-1.22 2.48-.65 3.64-2.52l.11-.17.15.14a3.67 3.67 0 01.4.43h2.18v.08a2.37 2.37 0 01.75 1.2 2.41 2.41 0 00-.43 1.29zm11-8.76a42.37 42.37 0 01-.19 5.28v.06h-.05a6.58 6.58 0 00-.87 2.16 7.56 7.56 0 01-1.23 2.69v2.47l-.07.05c-.5.31-.58 2.21-1.23 3v1.54l-.07.05a2.76 2.76 0 00-.36.28v2l-.07.05a1.27 1.27 0 01-.75.5.25.25 0 01-.22-.13 1.18 1.18 0 00-.24.11l-.24.14v-2.7l-1.31-4.26v-1.25c.08-1-2.13-1.71-2.16-3.75v-.06A11.45 11.45 0 0080.56 38c.07-.26-1.11-1.11-2.37-1.77a21.09 21.09 0 01-2.83-1.68h-.79l.37 1.09V38c.58.15.95.86 1.31.91a.26.26 0 01.23.24 13.53 13.53 0 00-.68 1.24v.15h-.17s-1.33-.09-2.41-.09a5.89 5.89 0 00-1.21.08c-2.06.69-4.4 1.57-4.41 1.57h-.13l-.07-.1c-.56-.94-.09-.68-.61-1.43l-.07-.1.07-.09a9 9 0 011.54-1.76 4.34 4.34 0 01.4-1.76c.45-.67 1.43-.86 1.33-1.09a.68.68 0 00-.36-.33l-.09-.06v-.1s.16-1.38.3-2.13a2.49 2.49 0 01.09-.4 4.2 4.2 0 01-.21-1.19 1.36 1.36 0 01.27-.89 2 2 0 01.39-.32v-1.89h.07a.57.57 0 00.36-.57c0-.15 0-.07-.13-.16a.57.57 0 01-.33-.6 1.81 1.81 0 010-.34 3 3 0 00.07-.64c0-.42-.11-.69-.11-1.08a1.8 1.8 0 01.09-.57 7.64 7.64 0 01.9-1.5 6.34 6.34 0 00.49-2.43v-.1h.08c1-.51.4-2.7 1.16-4.45a7 7 0 011.19-2.12 1 1 0 000-.15c0-.31-.15-.57-.16-.91a.73.73 0 01.17-.48 1.67 1.67 0 01.42-.34 14.16 14.16 0 01.94-2.44 3.5 3.5 0 01.85-1.28V6.33l.07-.05a.73.73 0 00.33-.37 1.36 1.36 0 01.58-.57c.4 0 .45-.4.46-1v-.49c0-.6.1-1.34.94-1.34 1.45.07 1.28 2.43 1.45 2.67 1.16 2.53 1.48 2.13 1.53 2.76v1.29c0 1.09 1.57 5.18 1.58 5.2l1.36 5.36c.14.12.25.22.38.31h.07V22a1.19 1.19 0 01.47.84c0 .19-.06.31-.05.39a.64.64 0 00.38.47h.07v2.55h-.12v.13a35.42 35.42 0 00.58 4.65v.08c.18.81.23 3.12.23 5.43zM76 30.06a3.2 3.2 0 01-.06.76v.06a7.63 7.63 0 01.79 0 5.84 5.84 0 011.27.13c1.26.27 2 1.15 2.79 1.4h.37c0-.6.06-2.79.06-4.53 0-1 0-1.8-.06-2.12a3.33 3.33 0 01-.34-1.57 2.87 2.87 0 00-.48-1.66c-.51-.49-1.18-.23-1.79-.85a4.78 4.78 0 01-.79-1.46l-.07 2v.08h-.07a1.53 1.53 0 00-.48.9 1 1 0 01-.75.75 8.09 8.09 0 01-.43 2.82 4 4 0 000 .63c-.09.77.04 1.87.04 2.66zm-17.95 7.77l-.18.05c-.67.15-.36.69-.92 1.28a7.75 7.75 0 00-.13 1.91c0 1.93.15 4.55.15 4.55v.18h-.17a3.12 3.12 0 00-1.59.86l-.05.08h-4.95l-.05-.08c-.28-.45-.28-.44-.31-.42s-.23 0-.52 0a.87.87 0 00-.83.4.92.92 0 01-.81.54 3.14 3.14 0 01-1.45-.7h-3.39v-.08a1.42 1.42 0 01-.46-.79.92.92 0 01.3-.42l.31-.33V42h.07c.41-.3.37-.27.38-.35s0-.17 0-.33a.24.24 0 010-.05l-.07-.17a9.54 9.54 0 00-.23-.5 3 3 0 00-.49-.78l-.14-.1.1-.13a1.27 1.27 0 00.27-.77 1.33 1.33 0 00-.29-.82 4.73 4.73 0 010-.7c0-1.37.49-3 .48-3.8v-.23l.07-.05c.43-.25.29-1.66.81-2.75a12.93 12.93 0 011.52-2.1 6.19 6.19 0 011.84-3.64c.1-.48.88-4.34 1.64-5.51a5.35 5.35 0 01.59-.47l.48-.35c0-.25.3-1 1.73-2.28a6.23 6.23 0 01-.21-1.52 3.12 3.12 0 01.25-1.31c.94-.67 1.49-2.19 3-3.57v-3L50 6.68c-.71.67-2.59.74-2.61 3.23v.17h-.21a2.31 2.31 0 00-.94.35 1.12 1.12 0 00-.63.77v3.5a5.1 5.1 0 01-.89 1.73l-.11.17-.15-.14a1 1 0 01-.41-.77v-.37a.61.61 0 00-.37-.49h-.06v-.1s-.13-.9-.23-1.47a1.69 1.69 0 00-.13-.65l-.11-.07v-.12a6.86 6.86 0 00.4-2 1.68 1.68 0 00-.36-1.18 2.35 2.35 0 00-.41-.33h-.07V4.69a2.15 2.15 0 00.4-1v-.28H56.16v2.44c0 .37.4.43.43 1.05v7.92l-.06.05a1.9 1.9 0 00-.53 1.48 4.68 4.68 0 00.15 1.16v.11l-.1.07c-1.26.88-1.91 4.39-2.67 5.29v2h-.1s-1.75.76-2.08 1.66a2.25 2.25 0 00-.11.78 6 6 0 00.12 1.11v.14l-.13.05c-1.43.54-3.73 7-3.69 7.34v1.17h-.18l.09.09a1.18 1.18 0 00-.08.16c-.07.15-.15.37-.26.64-.2.54-.46 1.26-.73 2A24.21 24.21 0 0145 43.66c.22.34.24.34.26.34h.39c.38 0 .54-.22 2.2-1a5.24 5.24 0 002.06-.47 12.19 12.19 0 001.34-1.92 3.67 3.67 0 012.48-1.83 3.77 3.77 0 01.79-1.83l.15-.15.1.18a2.89 2.89 0 00.23.35c1.38-.64.76-1.31 1.48-2.18v-.06h1.22v.6a6.9 6.9 0 00.3 1.96zm-37 2.91c0 .53.3 1.58.3 2.57a3.68 3.68 0 01-.06.69 12.09 12.09 0 01-.75 2.18 14.07 14.07 0 00-1.25 2.18 13.75 13.75 0 00-.6 3v.1h-.09A20.29 20.29 0 0015.85 53a5.79 5.79 0 00-2 1.82v.1h-.1a21.65 21.65 0 00-2.75.55.25.25 0 00-.12.05.57.57 0 01-.42.26c-.5-.09-.61-.67-.95-.63a1 1 0 00-.64.37C8.63 56 8 56 7.26 56a18.18 18.18 0 01-2.63-.25 1.21 1.21 0 01-.52.08c-.47 0-1.08-.1-1.41-.1h-.17l-.09.27-.15-.14c-.19-.17-.44-.4-.52-.45l-.28-.18.31-.11a6 6 0 001.31-.69v-.07c0-.07.07-.18.11-.3s.18-.61.28-1c.21-.8.42-1.77.56-2.51 0-2.54.15-3.84.15-5.17a16.09 16.09 0 00-.15-2.19c0-.31-.18-2.65-.38-4.34 0-2.74.16-5.55.16-7.21v-1.05H4a.62.62 0 00.52-.38L4.44 28l-.33-.7v-3.17a2.4 2.4 0 01.41-.93 2 2 0 00.07-.66c0-.42 0-.87-.05-1l-.44-.76v-11h.07c.41-.3.41-.3.4-.36s0-.25 0-.56v-.51A2.32 2.32 0 014.31 8h-.37a.17.17 0 01-.15.1.33.33 0 01-.19-.04h-.15a.17.17 0 01-.13-.17.24.24 0 01.06-.13l-.22-.26-1.44-1.37a1.16 1.16 0 00-.32-.4.32.32 0 01-.15-.29v-.45a1.11 1.11 0 01.09-.68 2 2 0 00.37-.46v-.08h2.37a5.07 5.07 0 011.73-.39c.81-.1 1.65-.16 1.93-.16l2.26.07c2.31 0 3.16-.23 4.37-.23a12 12 0 012 .18h.11v.11a2.55 2.55 0 001.2 1.25h.25a2 2 0 011.13.32 6.43 6.43 0 012.24 4.57c0 1.24.28 2.41.28 3.33a1.81 1.81 0 01-.42 1.34l-1.61 3A25.65 25.65 0 0117 20.61a1.28 1.28 0 00.49.44 3.75 3.75 0 001.51.45.64.64 0 01.56.67 2.64 2.64 0 01-.5 1.27.17.17 0 000 .13.87.87 0 00.11.4.32.32 0 00.16.17l.07-.07.11-.17.11.1a1.91 1.91 0 01.77 1c0 .06-.12-.06.4.35l.09.07v.11a14.22 14.22 0 00-.36 3 5.33 5.33 0 00.35 2.08c.12.36.85.55.92 1.09a.5.5 0 01-.14.33v2c0 1.36.25 2.67.25 3.86a4 4 0 01-.74 2.56.45.45 0 00-.07.29zm-5.9-29.89a.2.2 0 01.09-.21l.63-.44c-.71-.24-1.34.19-1.94-1h-.2l-1.92.28.12-.27A.43.43 0 0012 9l-.16.08a1.67 1.67 0 00-.1.61.65.65 0 01-.43.56v8.28a1.43 1.43 0 01.44-.08.86.86 0 01.47.14c.86-.26.5-2.37 3-2.67v-1c0-1 0-2.17.42-2.64a7.7 7.7 0 01-.49-1.43zm.35 29.51c0-.29.16-.55.15-.73a.33.33 0 00-.19-.3l-.21-.13.2-.14a.37.37 0 00.16-.35c0-.51-.57-1.41-.58-2.26a1.29 1.29 0 01.52-1.07 1.57 1.57 0 00-.31-1.31 1.53 1.53 0 01-.4-1.35c0-.48.43-1.34.42-1.84a.3.3 0 00-.12-.3L15 30.5l.07-.15a1 1 0 00.11-.46 1.69 1.69 0 00-.41-1l-.24-.26H14.99a2.78 2.78 0 01-.34-.74.28.28 0 01.12-.24.21.21 0 00.06-.16 2.31 2.31 0 00-.68-1 10.4 10.4 0 01-1.79-1.38L11.29 24v4.27a1.79 1.79 0 00-.29 1.05 9.26 9.26 0 00.27 2l-.46 2.23h-.08a.48.48 0 00-.33.45v.05a.5.5 0 00.33.48h.1v8.22a1 1 0 00-.39.5c0 .15 0 .26-.06.33a.32.32 0 01-.07.15v3.45s0 1.07.06 1.51a.16.16 0 010 .11 5.8 5.8 0 01-.49 1l-.31.57a6.05 6.05 0 001.16-.25l1-.92h.06c.73 0 1.65-1.55 2.26-2s.34-2.27.61-3.71v.04-.08c0-.07.07-.18.11-.3s.18-.58.28-.91a10 10 0 00.34-1.62.56.56 0 01.12-.27zm89.4 7.42a1.25 1.25 0 01.17.63 2.16 2.16 0 01-.18.8c-.24.55-.08.7-1.12 5.74v.18l-.17-.05a8.31 8.31 0 01-2-.84c-2.3-2.24-2.91-2.37-3.88-2.37h-.8v-.12a.43.43 0 010-.16c0-.78 1.3-3.71 1.53-5a40.06 40.06 0 00.18-4.22 12.89 12.89 0 000-1.41 31.62 31.62 0 00-.69-3.86c-.39-1.79-1.08-3.56-1.54-3.6h-.15v-.15c.13-1 .41-2.44.41-3a.4.4 0 000-.16c-.64-1.21-1.92-3.62-2.66-4a5 5 0 01.05.59 3.8 3.8 0 01-.51 1.65 2.77 2.77 0 00-.42 1v.06c0 1.14 1.11 10.23 1.11 11.08v.12l-.23.18a.74.74 0 00-.09.12.66.66 0 00-.12.35 3.18 3.18 0 01.38.77c0 .53.09 1.16.09 1.8a7.12 7.12 0 01-.39 2.61c.06 1 .45 3.34.45 4.47a2.36 2.36 0 010 .4.93.93 0 01-.39.34 5.76 5.76 0 01.07.86 12.72 12.72 0 01-.41 2.84l-.13.55-.19-.53a11.55 11.55 0 00-3.69-5.17c-1.26-1.05-2.27-1.36-2.36-2 0 0 1.52-5.37 2.18-6a1.51 1.51 0 00.09-.63 9 9 0 00-.1-1.2 2.93 2.93 0 00-.39-.17l-.08-.05v-.1-3.26-8.75a5.8 5.8 0 01-.16-.87h-.06l-.21-1.85c-.18-.26-.29-.76-.36-.77h-.07v-.17-.92-.57a1.76 1.76 0 01-.14-.58 3.59 3.59 0 00-.12-.64l-.08-.05v-.11-.15a3.41 3.41 0 00-.21-1.27 2 2 0 01-.17-1 4.8 4.8 0 00-.09-.87h-.05v-2.23a1.13 1.13 0 01-.45-.75v-.14a.72.72 0 00-.36-.34h-.06v-.09a16.81 16.81 0 01-.1-2 16.87 16.87 0 01.1-2v-.08c.71-.7 2.7-1.7 4-3.54C90 7 89.15 6.74 89 6.7l-.07.09a.64.64 0 01-.32.26 1.59 1.59 0 01-.46.12.85.85 0 01-.46-.17h-.08v-.1A4 4 0 0086 4.67c-.75-.67-1.43-1.06-1.66-1.26l-1.58-.34v-.33l6.27-.17a2 2 0 011.09-.29.73.73 0 01.73.47H93.24l.46.25 1.2.39 1.7.5h.4a3.59 3.59 0 01.53 0 4.18 4.18 0 012 1 6.76 6.76 0 001 .83h.1l2.22 4.68a3.69 3.69 0 01.08 1c0 .8-.06 1.79-.06 1.79v.08h-.06a1.94 1.94 0 00-.16.43 2.45 2.45 0 01-.2.54v1.86c-.81 3.19-2.31 5.75-5.08 5.86v.79a.61.61 0 01-.27.58h.11c.33 0 .6-.12 1-.13.51 0 1.08.29 2 1.42a1.5 1.5 0 01.56 1.34c0 .11 0 .12.08.13a5.25 5.25 0 01.64.26.36.36 0 01.21.32 1 1 0 000 .15 1.1 1.1 0 00.14.5 9.2 9.2 0 00.34 1.45 9.35 9.35 0 01.22 2.38 11.39 11.39 0 00.18 2.13.54.54 0 01.13.31c0 .14.05.31.09.47a.62.62 0 00.27.54.42.42 0 00.18-.07l.15-.1.08.16c.22.42.76 4.73.82 5.08v.13a7.09 7.09 0 00-.27 1.59 1 1 0 00.44.17h.07v.06a5 5 0 01.58 1.59v.13a.74.74 0 00-.17.44 10.11 10.11 0 01.16 1.45 11.5 11.5 0 01-.27 2.26zM97 16.72a5.46 5.46 0 01.1-.95v-.2h.1l.06-.14a1.21 1.21 0 01.16-.34v-.87a2.25 2.25 0 00.05-.5 3.53 3.53 0 00-.46-1.7s-.66-.93-1.44-1.86-1.7-1.85-2.07-1.82h-.37v12.8h.51a2.45 2.45 0 00.48 0 3.25 3.25 0 001.63-.88A21.54 21.54 0 0097 17a2.16 2.16 0 010-.28zm24.39 5.17a8.78 8.78 0 01-.17 2.15c-.12 0-.33.79-.59 1.12v.32c0 .52.07 1.13.07 1.73a3.09 3.09 0 01-.28 1.45 4.52 4.52 0 01-1 1.49l-.42 2.21a7.55 7.55 0 00-.32 1.57c0 .41.25 3.66.25 6.1a11.66 11.66 0 01-.17 2.49 5.56 5.56 0 00-.33 2.23v.65a6.59 6.59 0 01-.36 2.49l-.45 2.44a4.84 4.84 0 01-.9 1.9 1.73 1.73 0 01-.46.71 1.06 1.06 0 00-.36.3c-.19.5-1.08.64-2.1 1a17.71 17.71 0 00-2.92.93h-.12c-.46 0-1.05-.55-1.27-.53a1.83 1.83 0 01-1.23.54 10 10 0 01-1.74.19 1 1 0 01-.45-.06l-.2-.11.13-.2a5 5 0 001.39-3v-.22a8.38 8.38 0 00-.51-2.37l-.06-.15.15-.06c.62-.22 1.93-.84 1.83-1.07a.38.38 0 000-.19h-.06a.33.33 0 01-.34-.19l-.5-1.25-.88-2 .8-7.93a13.63 13.63 0 01-1.95-4.51v-1.29c0-.37-.39-.43-.43-1 0 0-.1-1.56-.1-2.75a6 6 0 01.08-1.2 2.71 2.71 0 00-.33-.26l-.09-.09.18-3a2.54 2.54 0 01-.16-.68 5.86 5.86 0 00-.15-.79l-.08-.05v-8.88l.08-.05a3.61 3.61 0 00.36-.29V8.32h.08a3.6 3.6 0 00.36-.32V5.55c-.44-.42-3.67-3.55-3.86-3.71l-.22-.27h2.5v.08a2.85 2.85 0 00.26.39h1.46v.13c0 .43 2.06.68 3 1.74h1.43v.08a4.59 4.59 0 00.48.62h1.42l.05.08a3.12 3.12 0 00.26.39h1.86v.08a2.88 2.88 0 00.26.39h2l.05.08c.64 1.06 1.91 1.74 2.17 2.24 1.47 3.09 1.17 3.36 1.68 3.68h.07l-.12 4.47a3.47 3.47 0 01.25.71 4.73 4.73 0 00.25.74h.05v.08s.41 2.45.41 4.34zm-6.56 7.36a2.09 2.09 0 01.85-1.86c.08-.45.39-2.55 1-3.12V20a3 3 0 01-.61-1.45 13.79 13.79 0 00-.33-1.34c-.5-.74-1.55-1-1.65-2.16-1-.11-1.17-1-1.58-.92-.82 0-1.25-.06-1.87-.06h-.67l-.17 1.62.12.56s.18 4.71.18 6.48v.38c0 .08.1.19.14.29l.19.42v.06a6.38 6.38 0 00.78 2.66h.09l-.06 20.69a8.51 8.51 0 002.07-4.8v-.27c.49-1.66 1-2.21 1.18-3.16 0-.52 0-8.5.3-9.55.03-.06.03-.13.03-.2zM41.26 47.13L41 47a1.62 1.62 0 00-.64-.14h-.47a1.64 1.64 0 00-.66.22h-.09l-.08-.06a4.87 4.87 0 00-1.7-.18 13.75 13.75 0 00-3.36.36 2.15 2.15 0 01-1 .8.27.27 0 01-.18-.08 3 3 0 01-.6-.49l-.15-.1.11-.14c1.25-1.56.55-1.09 2-2.05a30.72 30.72 0 00.37-5.61v-.43h.07c.39-.3.37-.3.38-.4s0-.21 0-.4a6.37 6.37 0 01-.43-1.41 3.21 3.21 0 01.54-1.89L35 16.51h.06a3.33 3.33 0 01.31-.23h.06a.41.41 0 000-.05.62.62 0 00-.43-.32v-.05l-.58-9.42a1.09 1.09 0 00-.91-.67 1.13 1.13 0 01-.92-.61.86.86 0 01-.72-.16 1.92 1.92 0 00-.55-.55l-.14-.1.11-.14c.16-.21.37-.47.42-.56l.06-.12h.13a29.63 29.63 0 004.33.21A21.43 21.43 0 0040 3.55l.13-.05.07.12a5.43 5.43 0 00.53.68v.94h-.12c-1.06.28-2.2 1.26-2.18 2.06 0 .64.08.6.13.64a.68.68 0 01.3.77.89.89 0 01-.39.77.45.45 0 00-.26.4c0 1.39.2 5.14.2 8.32a31.11 31.11 0 01-.18 3.91 1.17 1.17 0 01.19.59 3.69 3.69 0 00.14.68h.07l.24 1.37-.09.06a2 2 0 00-.4.33 1.54 1.54 0 00-.32 1.06c0 .41.08.8.08 1a3.75 3.75 0 000 .5 5.28 5.28 0 00.15 1.3c.05.28 0 .86.06 1.17a.16.16 0 000 .12h.07v.08a5.55 5.55 0 01.06.84 7.79 7.79 0 01-.06 1v.07h-.06a2.26 2.26 0 00-.41.33 1 1 0 00-.37.77 18.19 18.19 0 01.42 2.51v.17a8.24 8.24 0 00.59 1.63l.07.05-.19 3.26h-.07a1.39 1.39 0 00-.39.32.77.77 0 00-.18.51 5.16 5.16 0 00.21 1c.36 1.48.24.66 2.94 2.61h.06zm15.34 9.44h-6.06v-.09a4.07 4.07 0 00-.26-.38h-1.47v-.08a.59.59 0 00-.44-.41h-.26a1 1 0 01-.75-.47h-4.21a1.05 1.05 0 01-1-.62c-.86-.07-6.27-.08-9.12-.08h-1.87l-.05-.08a2.64 2.64 0 00-1.26-.62h-1.58C28 54 25.75 55.4 25.56 56l-.05.13h-.13a18.6 18.6 0 00-2.56-.23 3 3 0 00-1.33.21l-.15.09-.08-.2a1.09 1.09 0 00-.38-.41l-.15-.11.11-.14a1 1 0 00.4-.74v-.07l1.27-.68c.5-.49.43-.28 1.53-1.28v-2h.07a.6.6 0 00.36-.45.6.6 0 00-.36-.45l-.11-.1V46h.12a3.44 3.44 0 00.36-.29v-1.58h.07c.41-.3.37-.27.37-.35v-.33a1.45 1.45 0 00-.8-1.16L24 42.2v-6h.1a.46.46 0 00.34-.33 11.55 11.55 0 01-.1-1.55 10.46 10.46 0 01.11-1.6v-.07h.06a3.62 3.62 0 00.36-.29v-4.7h.07a1.65 1.65 0 00.48-1v-.07a1.44 1.44 0 00-.42-.97h-.07V19a2.69 2.69 0 00-.36-.29h-.07V15.1h.07a7.29 7.29 0 00.8-.76c0-.25.09-1.17.09-2a5.83 5.83 0 00-.08-1.12 3 3 0 00-.38-.3l-.15-.1.15-.19a6.33 6.33 0 00.72-2.07 7.1 7.1 0 00-.75-2.41 1 1 0 00-.86-.25h-.22v.07l-.19-.13c-.51-.38.17-.64-2.18-2.35l-.14-.11.11-.14a1 1 0 00.4-.75v-.13h.77l.05.08a3 3 0 00.26.38h3.48v.08a1.35 1.35 0 001 .9c.14 0 .27-.07.46-.07a.42.42 0 01.26.1 18.46 18.46 0 001.92 2.08h.07v4.39l-.07.05a.56.56 0 00-.36.57 1.56 1.56 0 00.8.88h.07v2l-.01.2a2.79 2.79 0 00-.36.28v9.22a2.43 2.43 0 01.85.82 10 10 0 01.25 3c0 2.78-.23 6.49-.23 6.49v.08h-.07a3 3 0 00-.36.29v3.13c.13.11.24.21.36.29h.06v.07a6.51 6.51 0 010 .86v1.77l-.09.1c-.53.08-.49.43-.71 1.1a1 1 0 01.41.82v.14a.84.84 0 01-.43.9v2l-.07.05a3.19 3.19 0 00-.36.28v2.94l-.07.05a.84.84 0 00-.37.61.58.58 0 000 .14 1.35 1.35 0 01.47 1.28c.8 0 1.39.11 2.12.11a8.76 8.76 0 001.29-.1 3 3 0 011.25-1.06h.2c.74 0 2.07.67 3.53.67a3.86 3.86 0 002.11-.58.83.83 0 01.63-.38 13.22 13.22 0 011.62-.18c1.33-.09 3.12-.12 4.93-.12 3.86 0 7.85.14 7.85.14h.16v5.54l.05.12.2.4a10.46 10.46 0 00.59 1zm66.65-52.15c0 .54-.26 1.27-2.06 1.27s-2.08-.73-2.08-1.27V2.69c0-.53.28-1.27 2.08-1.27s2.06.74 2.06 1.27v1.73zm-.36-1.76c0-.41-.28-.9-1.7-.9s-1.71.49-1.71.9v1.79c0 .41.29.91 1.71.91s1.7-.49 1.7-.9v-1.8zm-2.24 1.26v.88a.07.07 0 01-.07.09h-.22a.08.08 0 01-.08-.09V2.39a.07.07 0 01.08-.09h.93c.75 0 .93.36.93.69v.24a.64.64 0 01-.5.64l.4.93a.07.07 0 01-.08.09h-.23a.1.1 0 01-.09-.09l-.37-.88h-.71zm0-1.33v1h.6a.49.49 0 00.6-.42V3a.49.49 0 00-.6-.42h-.6zM9.53 64.97H5.89v-4.94h3.59v.91l-2.36-.01v1.04h2.25v.91l-2.25-.01v1.19h2.41v.91zM18.54 64.87h-.98L15 61.89v2.97h-1.16v-4.64h1.06l2.48 2.84v-2.83h1.16v4.64zM28.71 60.93l-1.79-.01v4.05h-1.23v-4.05h-1.8v-.91l4.82.01v.91zM36.5 64.97l-3.62-.01v-4.9h3.57v.9H34.1v1.03h2.24v.9H34.1v1.17l2.4.01v.9zM44 60a1.46 1.46 0 011.59 1.4 1.25 1.25 0 01-.83 1.19c.5.25.65.85 1.33 2.28h-1.37c-.52-1-.71-2-1.37-2H43v2h-1.2V60H44zm-1 2h.64a.57.57 0 00.66-.55.56.56 0 00-.69-.55H43V62zM54.71 60.96h-1.79v4.03h-1.24v-4.04h-1.8v-.9l4.83.01v.9zM63.21 65h-1.28l-.39-1h-2.13L59 65h-1.21l1.92-4.76h1.38zm-2.79-3.63l-.7 1.85h1.47zM68.73 64.9h-.91v-4.89h.91v4.89zM78.63 65h-1.01l-2.66-3.09v3.08h-1.2v-4.81h1.1l2.57 2.95v-2.94h1.2V65zM87.89 60.04h1.08v4.98l-1.24-.01v-3.1l-1.34 1.55h-.19l-1.34-1.56v3.11h-1.24v-4.98h1.08l1.59 1.85 1.6-1.84zM98.07 64.93l-3.49-.01v-4.73h3.44v.87h-2.26v.99h2.16v.87h-2.16v1.13l2.31.01v.87zM107.63 65h-1.02l-2.71-3.14v3.13h-1.22V60.1h1.12l2.61 3v-2.99h1.22V65zM116.66 60.93h-1.78v4.01h-1.23v-4.01h-1.77v-.9h4.78v.9z"/></svg>